<?xml version="1.0" encoding="UTF-8"?>
<svg width="256px" height="256px" viewBox="0 0 256 256" version="1.1" xmlns="http://www.w3.org/2000/svg" xmlns:xlink="http://www.w3.org/1999/xlink">
    <title>openai-35-logo</title>
    <g id="openai-35-logo" stroke="none" stroke-width="1" fill="none" fill-rule="evenodd">
        <g id="openai" transform="translate(1.000000, 0.000000)" fill="#000000" fill-rule="nonzero">
            <path d="M236.380821,104.758328 C242.182437,87.3199938 240.174144,68.2321268 230.869633,52.3771285 C216.879407,28.0716571 188.761242,15.5692854 161.300634,21.4441892 C145.825374,4.26283727 122.3447,-3.3774219 99.6973803,1.39941392 C77.0500605,6.17624973 58.6738957,22.64507 51.4861761,44.6065608 C33.4479449,48.2984515 17.8790982,59.5709277 8.76351397,75.5395002 C-5.37977535,99.8062966 -2.17006166,130.417351 16.7006081,151.235603 C10.8775304,168.665765 12.8677692,187.755627 22.1615682,203.615736 C36.1693388,227.929891 64.3061273,240.431757 91.7818636,234.549742 C104.002641,248.285702 121.55976,256.101179 139.964417,255.999011 C168.111749,256.023853 193.048089,237.887701 201.64655,211.136707 C219.682276,207.438454 235.248871,196.16722 244.369212,180.202701 C258.341179,155.978637 255.117434,125.533209 236.380821,104.759395 L236.380821,104.758328 Z M139.964417,239.243075 C128.729561,239.260764 117.847006,235.33048 109.224876,228.14129 L110.741334,227.283701 L161.80612,197.863276 C164.391755,196.349714 165.986656,193.587951 166.002831,190.596168 L166.002831,118.736817 L187.590188,131.201725 C187.806617,131.311173 187.957554,131.517327 187.996287,131.756384 L187.996287,191.303359 C187.939855,217.756751 166.468104,239.187279 139.964417,239.243075 L139.964417,239.243075 Z M36.7223475,195.239309 C31.087967,185.528716 29.0649482,174.145996 31.0091786,163.093585 L32.5267057,164.002374 L83.6417201,193.422799 C86.2171059,194.931144 89.4084586,194.931144 91.9838444,193.422799 L154.42474,157.49259 L154.42474,182.371206 C154.412857,182.632424 154.28222,182.873958 154.069938,183.027198 L102.347913,212.800685 C79.3642279,226.015856 49.9998347,218.157955 36.7223475,195.239309 L36.7223475,195.239309 Z M23.2740652,84.219923 C28.9475158,74.4469172 37.9025179,66.9927199 48.5537153,63.176991 L48.5537153,123.73302 C48.5145678,126.712655 50.1029307,129.477513 52.6991291,130.948928 L114.83652,166.727672 L93.248094,179.191513 C93.0108565,179.317238 92.726568,179.317238 92.4893305,179.191513 L40.8688299,149.469225 C17.9308297,136.198405 10.064028,106.912214 23.2740652,83.9681929 L23.2740652,84.219923 Z M200.635578,125.347933 L138.296206,89.216126 L159.834404,76.8002841 C160.071641,76.6745592 160.35593,76.6745592 160.593167,76.8002841 L212.213668,106.573772 C228.325357,115.852793 237.620482,133.582872 236.073102,152.084688 C234.525723,170.586505 222.41409,186.53304 204.984041,193.017471 L204.984041,132.461442 C204.892981,129.490189 203.240154,126.786643 200.634509,125.346866 L200.635578,125.347933 Z M222.123547,93.1019432 L220.60602,92.1931548 L169.592531,62.5209993 C167.001334,61.0032831 163.790306,61.0032831 161.19911,62.5209993 L98.8105789,98.4501417 L98.8105789,73.5725919 C98.783508,73.3149118 98.8999995,73.0631288 99.1140843,72.9166003 L150.734585,43.1932455 C166.885323,33.9066911 186.958354,34.7732681 202.245401,45.4170298 C217.532449,56.0607915 225.279095,74.5639478 222.124616,92.8992791 L222.123547,93.1019432 Z M87.0283704,137.204848 L65.4410132,124.79114 C65.2223736,124.659744 65.0735716,124.438137 65.0349144,124.186347 L65.0349144,64.7919038 C65.0591694,46.1914777 75.8498409,29.2801378 92.7270143,21.3923328 C109.604188,13.5045278 129.52805,16.0609607 143.857622,27.9529063 L142.340095,28.811562 L91.2763775,58.229854 C88.6907429,59.7434157 87.0958417,62.5051784 87.079667,65.4969614 L87.0283704,137.204848 Z M98.7582135,111.974236 L126.565294,95.9765732 L154.42474,111.974236 L154.42474,143.967429 L126.666819,159.964025 L98.8095102,143.967429 L98.7582135,111.974236 Z" id="Shape"></path>
        </g>
        <text id="3.5" stroke="#FFFFFF" stroke-width="4" fill-rule="nonzero" font-family="HelveticaNeue-Bold, Helvetica Neue" font-size="104" font-weight="bold" fill="#062AAA">
            <tspan x="111.44" y="256">3.5</tspan>
        </text>
        <ellipse id="Oval" stroke="#FFFFFF" stroke-width="4" cx="140" cy="204" rx="7" ry="5"></ellipse>
    </g>
</svg>