<svg viewBox="0 0 24 24" xmlns="http://www.w3.org/2000/svg"><path d="m22.2819 9.8211a5.9847 5.9847 0 0 0 -.5157-4.9108 6.0462 6.0462 0 0 0 -6.5098-2.9 6.0651 6.0651 0 0 0 -10.2757 2.1715 5.9847 5.9847 0 0 0 -3.9977 2.9 6.0462 6.0462 0 0 0 .7427 7.0966 5.98 5.98 0 0 0 .511 4.9107 6.051 6.051 0 0 0 6.5146 2.9001 5.9847 5.9847 0 0 0 4.5086 2.0108 6.0557 6.0557 0 0 0 5.7718-4.2058 5.9894 5.9894 0 0 0 3.9977-2.9001 6.0557 6.0557 0 0 0 -.7475-7.0729zm-9.022 12.6081a4.4755 4.4755 0 0 1 -2.8764-1.0408l.1419-.0804 4.7783-2.7582a.7948.7948 0 0 0 .3927-.6813v-6.7369l2.02 1.1686a.071.071 0 0 1 .038.052v5.5826a4.504 4.504 0 0 1 -4.4945 4.4944zm-9.6607-4.1254a4.4708 4.4708 0 0 1 -.5346-3.0137l.142.0852 4.783 2.7582a.7712.7712 0 0 0 .7806 0l5.8428-3.3685v2.3324a.0804.0804 0 0 1 -.0332.0615l-4.8398 2.7913a4.4992 4.4992 0 0 1 -6.1408-1.6464zm-1.2584-10.4082a4.485 4.485 0 0 1 2.3655-1.9728v5.6772a.7664.7664 0 0 0 .3879.6765l5.8144 3.3543-2.0201 1.1685a.0757.0757 0 0 1 -.071 0l-4.8303-2.7865a4.504 4.504 0 0 1 -1.6464-6.1408zm16.5963 3.8558-5.8333-3.3874 2.0154-1.164a.0757.0757 0 0 1 .071 0l4.8303 2.7913a4.4944 4.4944 0 0 1 -.6765 8.1042v-5.6772a.79.79 0 0 0 -.407-.667zm2.0107-3.0231-.142-.0852-4.7735-2.7818a.7759.7759 0 0 0 -.7854 0l-5.8379 3.3684v-2.3323a.0662.0662 0 0 1 .0284-.0615l4.8303-2.7866a4.4992 4.4992 0 0 1 6.6802 4.66zm-12.6413 4.1347-2.02-1.1638a.0804.0804 0 0 1 -.038-.0567v-5.5683a4.4992 4.4992 0 0 1 7.3757-3.4537l-.142.0805-4.7782 2.758a.7948.7948 0 0 0 -.3927.6813zm1.0976-2.3654 2.602-1.4998 2.6069 1.4998v2.9994l-2.5974 1.4997-2.6067-1.4997z"/></svg>