<?xml version="1.0" encoding="utf-8"?>
<!-- Generator: Adobe Illustrator 27.2.0, SVG Export Plug-In . SVG Version: 6.00 Build 0)  -->
<svg version="1.1" id="Layer_1" xmlns="http://www.w3.org/2000/svg" xmlns:xlink="http://www.w3.org/1999/xlink" x="0px" y="0px"
	 viewBox="0 0 143 143" style="enable-background:new 0 0 143 143;" xml:space="preserve">
<g>
	<path d="M133.2,0H9.4C4.2,0,0,4.2,0,9.4v123.9c0,5.2,4.2,9.4,9.4,9.4h123.9c5.2,0,9.4-4.2,9.4-9.4V9.4C142.6,4.2,138.4,0,133.2,0z
		 M107.6,64.7C105.3,80.8,91.6,92.6,75.9,93c-1.6,0-3.1-0.1-4.7-0.4c-6.3-1-12.1-4.1-16.6-8.5v0.5V86c0,0,0,0,0,0v28.9H41.3V43.6
		L35,38.6l8.3-10.4l9.3,7.5c0.8-0.7,1.6-1.4,2.5-2c7-5.3,15.7-7.5,24.5-6.3c8.7,1.2,16.4,5.8,21.7,12.9
		C106.6,47.3,108.8,56,107.6,64.7z"/>
	<path d="M75.1,39.1c-11.4,0-20.7,9.3-20.7,20.8c0,1,0.1,2,0.2,3c0.5,3.4,1.8,6.6,3.9,9.4c1.8,2.5,4.1,4.4,6.8,5.8
		c2.9,1.6,6.3,2.5,9.8,2.5c1.9,0,3.7-0.2,5.4-0.7c8.8-2.4,15.3-10.4,15.3-20c0-2.3-0.4-4.6-1.1-6.7C92,45,84.2,39.1,75.1,39.1z"/>
</g>
</svg>
