<?xml version="1.0" standalone="no"?>
<!DOCTYPE svg PUBLIC "-//W3C//DTD SVG 20010904//EN"
 "http://www.w3.org/TR/2001/REC-SVG-20010904/DTD/svg10.dtd">
<svg version="1.0" xmlns="http://www.w3.org/2000/svg"
 width="512.000000pt" height="512.000000pt" viewBox="0 0 512.000000 512.000000"
 preserveAspectRatio="xMidYMid meet">
<metadata>
Created by potrace 1.14, written by Peter Selinger 2001-2017
</metadata>
<g transform="translate(0.000000,512.000000) scale(0.100000,-0.100000)"
fill="#000000" stroke="none">
<path d="M0 2560 l0 -2560 2560 0 2560 0 0 2560 0 2560 -2560 0 -2560 0 0
-2560z m4526 1195 c60 -35 88 -95 82 -179 -7 -110 -74 -176 -177 -176 -62 0
-107 18 -143 56 -36 39 -48 74 -48 140 0 61 15 97 57 135 44 41 64 48 127 49
45 0 69 -6 102 -25z m-3096 -578 c98 -33 159 -68 223 -128 l52 -48 -106 -106
-105 -106 -61 40 c-84 57 -180 78 -272 62 -117 -21 -193 -78 -252 -191 -20
-39 -24 -59 -24 -145 0 -93 2 -105 33 -167 37 -76 82 -120 162 -157 46 -22 69
-26 140 -26 100 1 174 26 237 79 l40 35 106 -107 c59 -59 107 -110 107 -114 0
-3 -29 -29 -64 -57 -214 -170 -501 -199 -754 -75 -165 80 -290 233 -338 414
-25 97 -23 264 6 355 75 237 236 389 480 455 108 29 284 23 390 -13z m1988 0
c40 -14 97 -44 126 -66 29 -23 56 -41 59 -41 4 0 7 25 7 55 l0 55 165 0 165 0
0 -630 0 -630 -165 0 -165 0 0 55 c0 30 -2 55 -5 55 -3 0 -32 -20 -65 -44 -80
-59 -162 -87 -280 -93 -285 -16 -525 165 -606 457 -26 93 -26 310 0 400 69
235 231 395 451 446 90 20 224 12 313 -19z m1172 -627 l0 -630 -170 0 -170 0
0 630 0 630 170 0 170 0 0 -630z m-2276 -267 c103 -72 123 -222 43 -318 -86
-104 -253 -98 -330 12 -37 52 -47 143 -23 206 47 124 204 175 310 100z"/>
<path d="M3205 2887 c-62 -21 -97 -42 -137 -84 -129 -134 -127 -381 4 -512 68
-67 117 -86 228 -86 108 0 153 17 223 84 131 124 137 371 12 509 -75 83 -225
123 -330 89z"/>
</g>
</svg>
