<?xml version="1.0" encoding="UTF-8"?><svg viewBox="0 0 488 488" xmlns="http://www.w3.org/2000/svg"><defs><linearGradient id="e" x1=".5" x2=".5" y1=".99927" y2=".00167"><stop stop-color="#973BED" offset="0"/><stop stop-color="#007CFF" offset="1"/></linearGradient><linearGradient id="d" x1=".49677" x2=".49677" y1=".99739" y2="1e-5"><stop stop-color="#FFC800" offset="0"/><stop stop-color="#F0F" offset="1"/></linearGradient><linearGradient id="a" x1=".5" x2=".5" y1=".99921" y2=".00074"><stop stop-color="#00E0ED" offset="0"/><stop stop-color="#00DA72" offset="1"/></linearGradient><clipPath><path d="m0 0h487v144h-487v-144z" fill="#fff"/></clipPath></defs><g class="layer"><title>Layer 1</title><path d="m58 307.81a4 4 0 0 0 4 4h12a4 4 0 0 0 4-4v-65a68 68 0 0 0 58-63 4 4 0 0 0-4-4h-12a4 4 0 0 0-5 4 47 47 0 0 1-47 43 48 48 0 0 1-47-43 4 4 0 0 0-4-4h-13a4 4 0 0 0-4 4 68 68 0 0 0 58 63v65z" fill="url(#e)"/><path d="m209 171.81a72 72 0 0 0-71 86 72 72 0 0 0 98 53 72 72 0 0 0 24-118 72 72 0 0 0-51-21zm0 123a52 52 0 0 1-51-61 51 51 0 0 1 70-38 52 52 0 0 1 17 84 52 52 0 0 1-36 15z" fill="url(#d)"/><path d="m318 243.81a47 47 0 0 0 48 47 48 48 0 0 0 47-47v-64a4 4 0 0 1 4-4h13a4 4 0 0 1 4 4v64a68 68 0 0 1-68 68 68 68 0 0 1-69-68v-64a4 4 0 0 1 4-4h13a4 4 0 0 1 4 4v64z" fill="url(#a)"/><path d="m460 203.81a10 10 0 0 0-10 12 10 10 0 0 0 8 8 10 10 0 0 0 12-10 10 10 0 0 0-10-10zm0 16a5 5 0 0 1-5-4 5 5 0 0 1 4-7 5 5 0 0 1 7 5 5 5 0 0 1-6 6zm7 23a3 3 0 0 0-3 3 3 3 0 0 0 4 2 3 3 0 0 0 2-3 3 3 0 0 0-3-2zm-1-17-1 1a1 1 0 0 0 0 2 5 5 0 0 1-8 7 5 5 0 0 1-1-7 1 1 0 0 0-1-2l-1-1a1 1 0 0 0-2 0 10 10 0 0 0 8 16 10 10 0 0 0 10-11l-2-5a1 1 0 0 0-1-1 1 1 0 0 0-1 1zm-8-46h11a1 1 0 0 0 1-1v-2a1 1 0 0 0-1-1h-11a8 8 0 0 0-8 9l3 4a8 8 0 0 0-2 9 1 1 0 0 0-1 1v2a1 1 0 0 0 1 1h18a1 1 0 0 0 1-1v-2a1 1 0 0 0-1-1h-11a3 3 0 0 1-3-3 3 3 0 0 1 3-4h11a1 1 0 0 0 1-1v-2a1 1 0 0 0-1-1h-11a3 3 0 0 1-3-3 3 3 0 0 1 3-4z" fill="#B8B8BF"/></g></svg>