<?xml version="1.0" encoding="UTF-8"?>
<svg width="512px" height="448px" viewBox="0 0 512 448" version="1.1" xmlns="http://www.w3.org/2000/svg" xmlns:xlink="http://www.w3.org/1999/xlink">
    <title>three-columns</title>
    <g id="Page-1" stroke="none" stroke-width="1" fill="none" fill-rule="evenodd">
        <g id="Artboard" transform="translate(-1514.000000, -43.000000)" fill="#062AAA" fill-rule="nonzero">
            <g id="table-columns-solid-copy-2" transform="translate(1514.000000, 43.000000)">
                <path d="M0,64 C0,28.7 28.7,0 64,0 L448,0 C483.3,0 512,28.7 512,64 L512,384 C512,419.3 483.3,448 448,448 L64,448 C28.7,448 0,419.3 0,384 L0,64 Z M64,128 L64,384 L166.76578,384 L166.76578,128 L64,128 Z M204.61711,128 L204.61711,384 L307.38289,384 L307.38289,128 L204.61711,128 Z M448,128 L345.23422,128 L345.23422,384 L448,384 L448,128 Z" id="Shape"></path>
            </g>
        </g>
    </g>
</svg>
